/* XPM */
static char * mbsd_start_48x20_xpm[] = {
"48 20 342 2",
"  	c None",
". 	c #010A11",
"+ 	c #04121C",
"@ 	c #03111A",
"# 	c #020F18",
"$ 	c #030E16",
"% 	c #040E15",
"& 	c #051017",
"* 	c #323537",
"= 	c #8B8D8E",
"- 	c #B8B9BA",
"; 	c #C8CAC9",
"> 	c #C8C9C9",
", 	c #B6B7B8",
"' 	c #87888A",
") 	c #2E3236",
"! 	c #03101A",
"~ 	c #031019",
"{ 	c #020C15",
"] 	c #020E17",
"^ 	c #05121A",
"/ 	c #05121B",
"( 	c #041119",
"_ 	c #020F17",
": 	c #030F16",
"< 	c #393C3F",
"[ 	c #B6B7B7",
"} 	c #ECEEED",
"| 	c #D7D7D7",
"1 	c #B0B2B3",
"2 	c #9B9D9D",
"3 	c #B3B4B5",
"4 	c #D8D9DA",
"5 	c #EDEDED",
"6 	c #B1B2B3",
"7 	c #32363A",
"8 	c #030E17",
"9 	c #010E16",
"0 	c #031119",
"a 	c #031018",
"b 	c #041018",
"c 	c #6C6F71",
"d 	c #E6E6E6",
"e 	c #C5C6C7",
"f 	c #56595B",
"g 	c #686A6B",
"h 	c #4B5053",
"i 	c #041019",
"j 	c #5D5F61",
"k 	c #CACCCD",
"l 	c #E3E4E4",
"m 	c #626567",
"n 	c #040E17",
"o 	c #6C6E70",
"p 	c #EBECEC",
"q 	c #939596",
"r 	c #5B5D5E",
"s 	c #D4D4D4",
"t 	c #BCBDBE",
"u 	c #141B1F",
"v 	c #020C14",
"w 	c #030D16",
"x 	c #051016",
"y 	c #020D13",
"z 	c #030E14",
"A 	c #071016",
"B 	c #9C9D9E",
"C 	c #EAEAEA",
"D 	c #616365",
"E 	c #06121B",
"F 	c #383C3E",
"G 	c #E5E6E6",
"H 	c #737576",
"I 	c #F1F1F2",
"J 	c #E4E5E5",
"K 	c #25282B",
"L 	c #020B11",
"M 	c #020C12",
"N 	c #020D14",
"O 	c #030D15",
"P 	c #010C12",
"Q 	c #030D13",
"R 	c #9E9FA0",
"S 	c #E1E2E2",
"T 	c #2D3135",
"U 	c #040F18",
"V 	c #B3B5B6",
"W 	c #C6C7C6",
"X 	c #4E5152",
"Y 	c #EFF0F0",
"Z 	c #FDFDFD",
"` 	c #959798",
" .	c #030E13",
"..	c #010A10",
"+.	c #091219",
"@.	c #CECECF",
"#.	c #AAACAD",
"$.	c #ABABAC",
"%.	c #F8F8F8",
"&.	c #F7F7F7",
"*.	c #DDDDDD",
"=.	c #F2F2F2",
"-.	c #DBDBDB",
";.	c #555657",
">.	c #797A7B",
",.	c #E2E2E2",
"'.	c #ECECEC",
").	c #D1D1D1",
"!.	c #F9F9F9",
"~.	c #D8D8D8",
"{.	c #DFE0E0",
"].	c #DDDDDE",
"^.	c #888989",
"/.	c #313437",
"(.	c #ECEDED",
"_.	c #57585A",
":.	c #C4C6C7",
"<.	c #FEFEFD",
"[.	c #3B3E40",
"}.	c #10181D",
"|.	c #040D12",
"1.	c #020B10",
"2.	c #010A0F",
"3.	c #071216",
"4.	c #081117",
"5.	c #030C13",
"6.	c #65686A",
"7.	c #E9EBEB",
"8.	c #242B31",
"9.	c #E3E3E3",
"0.	c #E7E7E7",
"a.	c #848585",
"b.	c #FFFFFF",
"c.	c #BEBFBF",
"d.	c #161B1F",
"e.	c #F3F3F3",
"f.	c #CECFCF",
"g.	c #3D3F41",
"h.	c #DEDEDF",
"i.	c #B1B1B1",
"j.	c #9A9A9A",
"k.	c #8A8B8D",
"l.	c #D7D8D8",
"m.	c #F7F7F8",
"n.	c #060E13",
"o.	c #00090E",
"p.	c #071218",
"q.	c #020B12",
"r.	c #010E15",
"s.	c #05111A",
"t.	c #DDDEDD",
"u.	c #7B7E80",
"v.	c #7D7D7E",
"w.	c #949595",
"x.	c #454648",
"y.	c #2B2D30",
"z.	c #0E1419",
"A.	c #EEEFEF",
"B.	c #F0F0F0",
"C.	c #B7B8B8",
"D.	c #B1B2B2",
"E.	c #8C8D8F",
"F.	c #040B10",
"G.	c #070E13",
"H.	c #060F16",
"I.	c #030B12",
"J.	c #686B6D",
"K.	c #111A20",
"L.	c #BBBDBD",
"M.	c #AEB0B0",
"N.	c #E1E1E1",
"O.	c #FBFBFB",
"P.	c #353739",
"Q.	c #CACACA",
"R.	c #A4A4A4",
"S.	c #1D2024",
"T.	c #494B4C",
"U.	c #CACAC9",
"V.	c #9C9D9D",
"W.	c #A5A5A5",
"X.	c #FFFFFE",
"Y.	c #1F2325",
"Z.	c #091217",
"`.	c #020A11",
" +	c #010B11",
".+	c #515355",
"++	c #E9EAEA",
"@+	c #A3A4A5",
"#+	c #E8E8E8",
"$+	c #222528",
"%+	c #7C7C7D",
"&+	c #F6F6F6",
"*+	c #929293",
"=+	c #EBEBEB",
"-+	c #47484A",
";+	c #CACAC8",
">+	c #9D9D9E",
",+	c #A3A3A4",
"'+	c #FEFFFE",
")+	c #01090E",
"!+	c #060F14",
"~+	c #23282B",
"{+	c #0A1218",
"]+	c #061117",
"^+	c #191F24",
"/+	c #C8C8C9",
"(+	c #FEFEFE",
"_+	c #DFE1E1",
":+	c #051018",
"<+	c #A3A5A5",
"[+	c #BEBFC0",
"}+	c #D3D3D3",
"|+	c #27292C",
"1+	c #686969",
"2+	c #5D5E5F",
"3+	c #EEEEEE",
"4+	c #B2B3B2",
"5+	c #868687",
"6+	c #C9CACA",
"7+	c #030C12",
"8+	c #040D13",
"9+	c #808384",
"0+	c #646769",
"a+	c #DDDEDE",
"b+	c #717273",
"c+	c #020E16",
"d+	c #949494",
"e+	c #E0E1E1",
"f+	c #D2D2D2",
"g+	c #F5F5F5",
"h+	c #AFAFAF",
"i+	c #8A8C8C",
"j+	c #2F3234",
"k+	c #F3F4F4",
"l+	c #FCFBFC",
"m+	c #87898A",
"n+	c #050F16",
"o+	c #909394",
"p+	c #86898A",
"q+	c #FBFCFC",
"r+	c #5D5F60",
"s+	c #DEDEDE",
"t+	c #7A7E81",
"u+	c #A9A9AA",
"v+	c #E9E9E9",
"w+	c #777878",
"x+	c #787979",
"y+	c #767777",
"z+	c #D6D6D6",
"A+	c #E5E5E5",
"B+	c #979898",
"C+	c #B8BABA",
"D+	c #FFFEFE",
"E+	c #F4F4F4",
"F+	c #808283",
"G+	c #9FA2A1",
"H+	c #A8A9A8",
"I+	c #D5D5D5",
"J+	c #04111B",
"K+	c #666869",
"L+	c #252C33",
"M+	c #B4B6B7",
"N+	c #C6C7C7",
"O+	c #E6E7E8",
"P+	c #FAFBFA",
"Q+	c #DDDEDF",
"R+	c #D6D7D8",
"S+	c #EBEBEC",
"T+	c #464D53",
"U+	c #0B171F",
"V+	c #CDCFD0",
"W+	c #040F15",
"X+	c #393C3E",
"Y+	c #5C5F61",
"Z+	c #E8E9E9",
"`+	c #7F8384",
" @	c #9D9FA1",
".@	c #E1E1E2",
"+@	c #2C3237",
"@@	c #04141D",
"#@	c #040F16",
"$@	c #ECECEB",
"%@	c #404345",
"&@	c #BFC0C1",
"*@	c #FEFFFF",
"=@	c #FBFBFC",
"-@	c #D1D3D3",
";@	c #606366",
">@	c #9C9E9F",
",@	c #EAEBEB",
"'@	c #616568",
")@	c #051720",
"!@	c #03141F",
"~@	c #040F17",
"{@	c #151D24",
"]@	c #0D171F",
"^@	c #6D7173",
"/@	c #E6E7E7",
"(@	c #C5C7C8",
"_@	c #565A5E",
":@	c #404448",
"<@	c #929495",
"[@	c #B3B4B4",
"}@	c #9C9E9E",
"|@	c #565B5F",
"1@	c #5D6063",
"2@	c #CBCCCD",
"3@	c #E2E3E3",
"4@	c #63676A",
"5@	c #061823",
"6@	c #041620",
"7@	c #051622",
"8@	c #061118",
"9@	c #101A21",
"0@	c #0F1A21",
"a@	c #06131B",
"b@	c #3A3E42",
"c@	c #B1B2B4",
"d@	c #B3B4B6",
"e@	c #D8DADB",
"f@	c #B1B3B4",
"g@	c #33393F",
"h@	c #061824",
"i@	c #061925",
"j@	c #051723",
"k@	c #06141C",
"l@	c #04121A",
"m@	c #0A171F",
"n@	c #07141D",
"o@	c #08161F",
"p@	c #19232C",
"q@	c #33383D",
"r@	c #8C8E91",
"s@	c #C8CACA",
"t@	c #B6B7B9",
"u@	c #878A8C",
"v@	c #2E353C",
"w@	c #071926",
"x@	c #081B29",
"y@	c #071B27",
"z@	c #091C29",
"A@	c #061926",
". . . . . . . . . . . . . . . . . . . . . . . . . . . . + @ # $ % & * = - ; > , ' ) ! ~ { ] ^ ~ ",
". . . . . . . . . . . . . . . . . . . . . . . . . . . . / ( _ : < [ } | 1 2 2 3 4 5 6 7 8 9 ( 0 ",
". . . . . . . . . . . . . . . . . . . . . . . . . . . . a ( b c d e f g h i { $ % j k l m ( _ a ",
". . . . . . . . . . . . . . . . . . . . . . . . . . . . ^ n o p q r s t u v w x y z A B C D ^ a ",
". . . . . . . . . . . . . . . . . . . . . . . . . . . . E F G q H I J K L L M N O y P Q R S T a ",
". . . . . . . . . . . . . . . . . . . . . . . . . . . . U V W X Y Z `  .M L ..P z Q P y +.@.#./ ",
". . $.%.&.*.=.-.;.. . >.,.'.,.).. $.&.!.~.{.].^.. . . . /.(._.:.<.!.[.}.|.1.2.3.4.5.y x w 6.7.8.",
". . . 9.0.. a.b.c.. d.e.f.. g.!.. . h.5 . . i.b.j.. . . k.l.g.m.b.C n.o.o.2.. p.. q.y y r.s.t.u.",
". . . 9.0.. v.b.w.. x.b.].y.. ^.. . h.5 . . z.A.B.. . . C.D.E.b.b.0.F.G.1.2.. H.. I.J.K._ _ L.M.",
". . . 9.&.N.O.> P.. . Q.b.5 R.S.. . h.5 . . . ~.b.T.. . U.V.W.X.b.e.Y.n.Z.2.`. +. .+++R _ _ @+c.",
". . . 9.#+$+%+&+N.. . . *+=+b.l.. . h.5 . . . ~.b.-+. . ;+>+,+'+b.Z H )+!+~+{+]+^+/+(+_+:+9 <+[+",
". . . 9.0.. . }+b.|+1+w.. y.{.b.2+. h.5 . . z.3+A.. . . C.4+5+(+b.(+6+7+8+9+0+= a+(+(+b+9 c+t M.",
". . . 9.0.. $+C 5 . d+e+. . f+g+|+. h.5 . . h+b.w.. . . i+l.j+k+b.b.l+m+n+o+p+q+b.b.O.r+a ( s+t+",
". . u+%.&.| v+N.w+. x+{.9.'.].y+. u+&+!.z+,.A+B+. . . . /.(.f C+D+b.X.E+F+G+H+b.b.(+I++ J+K+++L+",
". . . . . . . . . . . . . . . . . . . . . . . . . . . . % M+N+< O+b.b.b.P+Q+R+b.b.S+f.T+U+V+#.+ ",
". . . . . . . . . . . . . . . . . . . . . . . . . . . . W+X+G q Y+Z+D+b.b.(+(+b.b.3+Y `+ @.@+@@@",
". . . . . . . . . . . . . . . . . . . . . . . . . . . . #@#@o $@q %@&@&.D+X.*@'+=@-@;@>@,@'@)@!@",
". . . . . . . . . . . . . . . . . . . . . . . . . . . . ~@{@]@^@/@(@_@:@<@6 [@}@|@1@2@3@4@5@6@7@",
". . . . . . . . . . . . . . . . . . . . . . . . . . . . 8@9@0@a@b@, (.l.c@>@>@d@e@(.f@g@h@i@h@j@",
". . . . . . . . . . . . . . . . . . . . . . . . . . . . k@l@m@n@o@p@q@r@- 6+s@t@u@v@w@x@y@z@x@A@"};
